# xmcd CD database file
#
# Track frame offsets:
#	150
#	17312
#	35980
#	59427
#	81160
#	102642
#	123397
#	145490
#	168785
#	185190
#	206525
#	226347
#	248277
#	268262
#
# Disc length: 3896 seconds
#
# Revision: 2
# Processed by: cddbd v1.5.2PL0 Copyright (c) Steve Scherf et al.
# Submitted via: CDex 1.70beta2
#
DISCID=c60f360e
DTITLE=佐々木望 - runblefish
DYEAR=1992
DGENRE=Pop
TTITLE0=BAD DREAMにうなされて
TTITLE1=浮遊人
TTITLE2=誰かがいない
TTITLE3=も一度Baby Blue
TTITLE4=涙の狂想曲
TTITLE5=風の跡
TTITLE6=16の夏
TTITLE7=夜想
TTITLE8=ランブルフィッシュ
TTITLE9=クリスタルアイズ
TTITLE10=DREAM OF LONELINESS
TTITLE11=異国の小夜曲
TTITLE12=地球を届けよう
TTITLE13=新宿サンセット
EXTD=YEAR: 1992
EXTT0=
EXTT1=
EXTT2=
EXTT3=
EXTT4=
EXTT5=
EXTT6=
EXTT7=
EXTT8=
EXTT9=
EXTT10=
EXTT11=
EXTT12=
EXTT13=
PLAYORDER=
